PathFileType	4	(X/Y/Z)	c:/Users/goper/Files/vsCode/490R/osim_files/A01/A01_PWS_04.trc
DataRate	CameraRate	NumFrames	NumMarkers	Units                	OrigDataRate	OrigDataStartFrame	OrigNumFrames
120.00	120.00	4	36	mm	120.0	445	1184
                Frame#	Time	Mobility_markerset:LPSIS			Mobility_markerset:LASIS			Mobility_markerset:LTH1			Mobility_markerset:LTH2			Mobility_markerset:LTH3			Mobility_markerset:LTH4			Mobility_markerset:LLFE			Mobility_markerset:LMFE			Mobility_markerset:LSH1			Mobility_markerset:LSH2			Mobility_markerset:LSH3			Mobility_markerset:LSH4			Mobility_markerset:LLMAL			Mobility_markerset:LMMAL			Mobility_markerset:LCAL			Mobility_markerset:LMTP5			Mobility_markerset:LTOE			Mobility_markerset:LMTP1			Mobility_markerset:RPSIS			Mobility_markerset:RASIS			Mobility_markerset:RTH1			Mobility_markerset:RTH2			Mobility_markerset:RTH3			Mobility_markerset:RTH4			Mobility_markerset:RLFE			Mobility_markerset:RMFE			Mobility_markerset:RSH1			Mobility_markerset:RSH2			Mobility_markerset:RSH3			Mobility_markerset:RSH4			Mobility_markerset:RLMAL			Mobility_markerset:RMMAL			Mobility_markerset:RCAL			Mobility_markerset:RMTP1			Mobility_markerset:RTOE			Mobility_markerset:RMTP5		
		X1	Y1	Z1	X2	Y2	Z2	X3	Y3	Z3	X4	Y4	Z4	X5	Y5	Z5	X6	Y6	Z6	X7	Y7	Z7	X8	Y8	Z8	X9	Y9	Z9	X10	Y10	Z10	X11	Y11	Z11	X12	Y12	Z12	X13	Y13	Z13	X14	Y14	Z14	X15	Y15	Z15	X16	Y16	Z16	X17	Y17	Z17	X18	Y18	Z18	X19	Y19	Z19	X20	Y20	Z20	X21	Y21	Z21	X22	Y22	Z22	X23	Y23	Z23	X24	Y24	Z24	X25	Y25	Z25	X26	Y26	Z26	X27	Y27	Z27	X28	Y28	Z28	X29	Y29	Z29	X30	Y30	Z30	X31	Y31	Z31	X32	Y32	Z32	X33	Y33	Z33	X34	Y34	Z34	X35	Y35	Z35	X36	Y36	Z36

445	3.70000	947.75867	1053.53186	308.29141	708.11462	1028.55127	394.08994	758.30707	702.58643	445.95038	757.00891	658.04236	432.44238	818.28979	695.51392	444.44986	807.71149	649.54718	434.42050	769.91272	537.51617	394.51642	0.00000	0.00000	0.00000	827.44537	379.45367	376.49802	833.61188	332.65909	376.85980	766.11603	367.45309	375.15027	781.55878	323.95383	373.34698	849.79382	89.64779	344.54160	859.38782	90.97363	263.91101	931.01208	64.30098	304.02139	710.46210	34.84144	361.05640	682.96381	57.02977	295.15906	699.73883	46.73006	261.00848	947.84924	1042.79517	205.36604	715.60089	995.93573	137.03178	745.54199	664.21613	60.78615	721.37885	627.69922	65.41580	688.63190	691.20880	57.15156	674.73193	651.17029	60.53299	636.29059	509.46964	103.33383	612.47937	527.68402	223.58453	823.65936	399.07797	108.83021	849.70746	362.82327	110.25004	778.04901	359.71552	103.19301	808.92407	327.27975	105.99432	940.92206	207.09015	145.75128	905.77905	210.94757	228.35016	996.49963	216.58142	198.74858	839.81580	81.34897	232.66089	805.59283	75.11485	186.08365	869.64722	77.48260	123.84455
446	3.70833	938.47241	1054.06934	308.28665	699.15649	1029.09070	394.82101	752.65955	702.41443	445.98779	751.49573	657.80927	432.26453	812.42523	695.78406	444.16846	802.23260	649.76074	434.09448	765.25909	537.26349	394.34558	0.00000	0.00000	0.00000	824.16187	379.88605	376.32626	830.93878	333.05576	376.76642	763.11322	367.20364	375.04785	778.94373	323.73532	373.31223	849.20947	90.02314	344.58774	858.95935	91.35366	263.77563	930.64557	65.12027	303.99152	710.32300	34.68528	361.10272	682.29657	56.74087	294.84689	698.88855	46.81644	260.77795	938.31195	1043.62732	205.32617	705.15771	998.42487	138.22925	730.62286	666.40350	61.39227	705.84283	630.16284	66.31995	674.08643	694.24475	57.89951	659.48962	654.28552	62.20412	619.19281	512.64746	105.98730	597.35620	531.89935	225.84581	802.73773	394.08783	109.69138	826.61304	356.33496	111.31762	754.08594	355.82040	105.78441	784.35754	323.02805	107.58224	910.85492	196.37868	146.58601	876.37219	202.16035	229.23807	967.27161	202.77052	199.52661	802.47266	77.08656	232.76292	766.41455	73.61713	185.61102	832.27350	71.66704	123.99153
447	3.71667	929.15253	1054.44189	308.14108	690.61951	1029.49707	395.68140	746.73932	702.02039	445.90518	745.59161	657.51819	432.10849	806.50415	696.12915	443.92902	796.99634	650.10730	433.90240	760.61597	536.94727	394.19775	0.00000	0.00000	0.00000	821.17377	380.34161	376.25037	828.17761	333.39429	376.67194	760.08807	366.99713	374.92407	776.30994	323.50848	373.24777	848.68829	90.44659	344.58514	858.47229	91.72742	263.64154	929.82770	65.65800	304.03284	710.19348	34.54147	361.15781	682.52411	56.35131	295.27240	699.38898	46.39208	261.05975	928.64105	1044.29578	205.08127	695.79968	1000.50336	139.34059	715.91150	668.42780	61.99974	690.77191	632.50842	67.23746	659.70837	696.45941	60.64593	644.61731	657.23987	63.93241	603.33533	515.72937	108.79108	582.94519	535.80157	228.16364	781.38837	388.51947	110.84983	803.66583	349.48383	112.27470	731.76422	353.71033	106.45787	759.55096	318.41373	108.91512	880.11469	185.76880	146.99364	846.65594	193.04547	229.93962	937.21442	188.81248	199.99103	765.42633	72.36979	233.28355	729.44592	71.40946	185.81935	795.01373	66.49430	123.91645
448	3.72500	919.99164	1054.73962	307.75699	681.97528	1029.72241	396.68677	740.58795	701.66418	445.87640	739.97363	657.19049	432.02390	801.35175	696.48511	443.62244	791.05792	650.00775	433.56580	755.91827	536.73669	394.07172	738.63312	546.73743	256.99228	817.74207	380.51212	376.10941	825.30762	333.76666	376.57104	757.48981	366.23373	374.10764	773.54736	323.38074	373.06033	847.90985	90.43710	344.51999	857.54163	91.84175	263.41174	929.44171	66.57814	304.04099	710.00775	34.42733	361.23163	682.27826	56.04490	295.28140	699.11835	46.27866	261.05176	918.99603	1044.81738	204.73073	685.76117	1002.39722	140.62920	701.46631	670.26422	62.61576	675.96942	634.60217	68.23153	0.00000	0.00000	0.00000	630.13953	659.90356	65.77090	588.22009	518.58502	111.59995	569.40338	539.23096	230.45712	760.12195	382.68124	112.00687	780.17706	342.68097	113.20105	706.95013	349.12082	109.12584	734.84595	313.58224	110.04566	848.67346	175.08202	147.27095	815.74219	183.61053	230.29726	906.13684	174.72177	200.11168	728.00317	68.12385	232.60583	691.78998	69.38940	185.68983	756.85999	61.20705	123.74512
